<svg preserveAspectRatio="none" width="100%" height="100%" overflow="visible" style="display: block;" viewBox="0 0 29 28" fill="none" xmlns="http://www.w3.org/2000/svg">
<path id="Vector" fill-rule="evenodd" clip-rule="evenodd" d="M18.185 17.9887C17.8335 18.6317 17.3043 19.1704 16.6547 19.5463C16.0051 19.9223 15.26 20.121 14.5003 20.121C13.7407 20.121 12.9956 19.9223 12.346 19.5463C11.6964 19.1704 11.1671 18.6317 10.8157 17.9887C10.774 17.9123 10.7484 17.8288 10.7404 17.743C10.7325 17.6571 10.7423 17.5707 10.7694 17.4885C10.7965 17.4063 10.8402 17.3299 10.8982 17.2639C10.9561 17.1978 11.0271 17.1433 11.1072 17.1035C11.1872 17.0636 11.2746 17.0392 11.3645 17.0316C11.4544 17.024 11.545 17.0334 11.6311 17.0593C11.7172 17.0851 11.7971 17.1269 11.8663 17.1822C11.9355 17.2376 11.9926 17.3054 12.0343 17.3817C12.2696 17.8119 12.6238 18.1724 13.0585 18.4239C13.4931 18.6754 13.9917 18.8084 14.5 18.8084C15.0083 18.8084 15.5069 18.6754 15.9415 18.4239C16.3762 18.1724 16.7304 17.8119 16.9657 17.3817C17.05 17.2274 17.195 17.1113 17.369 17.0591C17.5429 17.0068 17.7315 17.0227 17.8932 17.1032C18.0549 17.1836 18.1764 17.3222 18.2312 17.4882C18.2859 17.6543 18.2693 17.8343 18.185 17.9887ZM19.9963 14.4733C19.8035 14.4729 19.6152 14.418 19.4551 14.3155C19.2949 14.213 19.1702 14.0676 19.0966 13.8974C19.023 13.7273 19.0038 13.5402 19.0415 13.3597C19.0792 13.1792 19.1721 13.0134 19.3084 12.8832C19.4448 12.7531 19.6184 12.6644 19.8075 12.6284C19.9965 12.5924 20.1925 12.6107 20.3707 12.681C20.5489 12.7512 20.7013 12.8703 20.8086 13.0232C20.916 13.1761 20.9735 13.3559 20.9738 13.54C20.9738 13.7875 20.8709 14.0249 20.6875 14.1999C20.5042 14.375 20.2556 14.4733 19.9963 14.4733ZM19.9963 11.2979C19.5315 11.298 19.0771 11.4296 18.6906 11.6763C18.3041 11.9229 18.0029 12.2734 17.8251 12.6834C17.6473 13.0935 17.6008 13.5447 17.6916 13.9799C17.7823 14.4152 18.0062 14.815 18.335 15.1288C18.6637 15.4426 19.0825 15.6562 19.5384 15.7428C19.9944 15.8293 20.4669 15.7848 20.8964 15.6149C21.3258 15.445 21.6928 15.1573 21.951 14.7883C22.2092 14.4192 22.347 13.9854 22.3469 13.5415C22.3462 12.9466 22.0982 12.3763 21.6576 11.9556C21.2169 11.535 20.6194 11.2985 19.9963 11.2979ZM9.00369 14.4733C8.81081 14.4733 8.62223 14.4188 8.4618 14.3166C8.30137 14.2144 8.17628 14.069 8.10233 13.8989C8.02838 13.7289 8.0089 13.5417 8.04635 13.361C8.0838 13.1804 8.17649 13.0144 8.31272 12.884C8.44895 12.7536 8.6226 12.6648 8.81172 12.6286C9.00084 12.5924 9.19695 12.6106 9.37527 12.6808C9.55358 12.751 9.7061 12.8701 9.81355 13.023C9.92099 13.1759 9.97855 13.3558 9.97893 13.54C9.97893 13.7871 9.87626 14.0242 9.69343 14.1992C9.5106 14.3741 9.26255 14.4727 9.00369 14.4733ZM9.00369 11.2979C8.53881 11.2978 8.08436 11.4294 7.6978 11.6759C7.31125 11.9225 7.00995 12.2729 6.83203 12.683C6.6541 13.093 6.60752 13.5442 6.6982 13.9796C6.78888 14.4149 7.01273 14.8147 7.34144 15.1286C7.67016 15.4424 8.08897 15.6561 8.54492 15.7427C9.00086 15.8293 9.47346 15.7848 9.90293 15.6149C10.3324 15.4451 10.6995 15.1574 10.9577 14.7883C11.2159 14.4193 11.3537 13.9854 11.3537 13.5415C11.3528 12.9467 11.1049 12.3765 10.6644 11.956C10.2239 11.5354 9.62667 11.2987 9.00369 11.2979ZM27.6262 17.8683C27.626 18.1543 27.5069 18.4285 27.2951 18.6307C27.0833 18.8329 26.7961 18.9466 26.4966 18.9469H26.0844V11.2092H26.4966C26.7963 11.2096 27.0837 11.3235 27.2956 11.5261C27.5074 11.7286 27.6263 12.0031 27.6262 12.2894V17.8683ZM24.7096 19.8861V10.2703C24.7088 9.65178 24.451 9.05879 23.9929 8.6214C23.5348 8.18402 22.9137 7.93793 22.2658 7.9371H6.73517C6.08732 7.93801 5.46627 8.18412 5.00817 8.62149C4.55007 9.05887 4.2923 9.65181 4.29135 10.2703V19.8861C4.29221 20.5047 4.54996 21.0976 5.00808 21.535C5.4662 21.9724 6.08729 22.2185 6.73517 22.2193H11.7981C11.9188 22.2194 12.0374 22.2497 12.142 22.3073C12.2466 22.3648 12.3335 22.4476 12.3941 22.5472L14.5 26.0315L16.6066 22.5472C16.667 22.4475 16.7538 22.3648 16.8583 22.3072C16.9628 22.2497 17.0813 22.2194 17.2019 22.2193H22.2652C22.913 22.2185 23.5341 21.9724 23.9922 21.535C24.4504 21.0976 24.7081 20.5047 24.709 19.8861H24.7096ZM1.37375 17.8683V12.2894C1.37401 12.0034 1.49311 11.7291 1.7049 11.5269C1.91669 11.3246 2.20388 11.2108 2.50345 11.2105H2.91564V18.9469H2.50345C2.20386 18.9466 1.91662 18.8329 1.7048 18.6306C1.49299 18.4283 1.37393 18.1543 1.37375 17.8683ZM13.0533 2.69478C13.0533 2.4216 13.1382 2.15458 13.2972 1.92747C13.4562 1.70036 13.6822 1.52337 13.9466 1.41887C14.2109 1.31437 14.5018 1.28706 14.7824 1.34039C15.0631 1.39373 15.3208 1.5253 15.5231 1.71849C15.7254 1.91168 15.8632 2.1578 15.919 2.42573C15.9748 2.69367 15.9461 2.97138 15.8366 3.22376C15.7271 3.47613 15.5416 3.69184 15.3037 3.8436C15.0658 3.99537 14.7861 4.07637 14.5 4.07637C14.1164 4.07596 13.7487 3.9303 13.4775 3.67135C13.2063 3.4124 13.0537 3.06099 13.0533 2.69478ZM26.4966 9.89703H26.0645C25.9665 8.99977 25.5241 8.16891 24.8226 7.5646C24.121 6.96029 23.21 6.62532 22.2652 6.62427H15.1875V5.30708C15.8552 5.14697 16.4386 4.75936 16.8277 4.21721C17.2169 3.67506 17.3851 3.01578 17.3006 2.36348C17.2161 1.71119 16.8848 1.11088 16.369 0.675574C15.8532 0.24027 15.1886 0 14.5002 0C13.8117 0 13.1471 0.24027 12.6313 0.675574C12.1155 1.11088 11.7842 1.71119 11.6997 2.36348C11.6152 3.01578 11.7834 3.67506 12.1726 4.21721C12.5618 4.75936 13.1451 5.14697 13.8128 5.30708V6.62427H6.73517C5.79028 6.62526 4.87923 6.9602 4.17767 7.56452C3.47612 8.16884 3.03375 8.99975 2.93584 9.89703H2.50345C1.83955 9.89843 1.20329 10.151 0.734056 10.5994C0.26482 11.0478 0.000860594 11.6555 0 12.2894V17.8683C0.00111978 18.5022 0.265328 19.1098 0.734747 19.558C1.20417 20.0062 1.84053 20.2586 2.50443 20.2597H2.93584C3.03382 21.1569 3.47623 21.9878 4.17777 22.592C4.87932 23.1963 5.79033 23.5312 6.73517 23.5322H11.4019L13.9047 27.6716C13.965 27.7715 14.0517 27.8544 14.1562 27.912C14.2607 27.9697 14.3793 28 14.5 28C14.6207 28 14.7393 27.9697 14.8438 27.912C14.9483 27.8544 15.035 27.7715 15.0953 27.6716L17.5988 23.5322H22.2652C23.21 23.5311 24.1209 23.1962 24.8225 22.592C25.524 21.9877 25.9664 21.1569 26.0645 20.2597H26.4966C27.1603 20.2583 27.7964 20.0059 28.2656 19.5577C28.7348 19.1095 28.9989 18.502 29 17.8683V12.2894C28.9991 11.6555 28.7352 11.0478 28.2659 10.5994C27.7967 10.151 27.1605 9.89843 26.4966 9.89703Z" fill="var(--fill-0, #C1C8FF)"/>
</svg>
