<svg width="200" height="200" viewBox="0 0 200 200" fill="none" xmlns="http://www.w3.org/2000/svg">
  <defs>
    <linearGradient id="flowGrad2" x1="0%" y1="0%" x2="100%" y2="100%">
      <stop offset="0%" style="stop-color:#8B5CF6"/>
      <stop offset="50%" style="stop-color:#6366F1"/>
      <stop offset="100%" style="stop-color:#3B82F6"/>
    </linearGradient>
  </defs>
  
  <!-- Rounded square container -->
  <rect x="20" y="20" width="160" height="160" rx="40" fill="url(#flowGrad2)"/>
  
  <!-- Flowing F letterform in white -->
  <path d="M70 55 
           L130 55
           C135 55, 140 60, 140 65
           C140 70, 135 75, 130 75
           L90 75
           L90 92
           L120 92
           C125 92, 130 97, 130 102
           C130 107, 125 112, 120 112
           L90 112
           L90 140
           C90 145, 85 150, 80 150
           C75 150, 70 145, 70 140
           L70 55Z" 
        fill="white"/>
  
  <!-- Flow wave accent -->
  <circle cx="155" cy="155" r="15" fill="white" opacity="0.3"/>
  <circle cx="45" cy="45" r="10" fill="white" opacity="0.2"/>
</svg>
